<?xml version="1.0" encoding="utf-8"?>
<!-- Generator: Adobe Illustrator 16.0.0, SVG Export Plug-In . SVG Version: 6.00 Build 0)  -->
<!DOCTYPE svg PUBLIC "-//W3C//DTD SVG 1.1//EN" "http://www.w3.org/Graphics/SVG/1.1/DTD/svg11.dtd">
<svg version="1.1" id="Layer_1" xmlns="http://www.w3.org/2000/svg" xmlns:xlink="http://www.w3.org/1999/xlink" x="0px" y="0px"
	 width="245.065px" height="66.944px" viewBox="0 0 245.065 66.944" enable-background="new 0 0 245.065 66.944"
	 xml:space="preserve">
<g>
	<path fill="#61CAE6" d="M137.837,18.796c0,10.381-8.436,18.797-18.841,18.797c-10.406,0-18.842-8.416-18.842-18.797
		S108.59,0,118.996,0C129.402,0,137.837,8.415,137.837,18.796"/>
	<g>
		<g>
			<defs>
				<rect id="SVGID_1_" x="46.518" y="14.599" width="33.544" height="34.048"/>
			</defs>
			<clipPath id="SVGID_2_">
				<use xlink:href="#SVGID_1_"  overflow="visible"/>
			</clipPath>
			<path clip-path="url(#SVGID_2_)" fill="#71C6A4" d="M48.2,48.552c-1.169,0.356-1.9-0.325-1.624-1.517l7.246-31.312
				c0.275-1.19,1.233-1.484,2.128-0.651l23.563,21.92c0.895,0.832,0.67,1.805-0.499,2.161L48.2,48.552z"/>
		</g>
	</g>
	<g>
		<g>
			<defs>
				<rect id="SVGID_3_" x="162.919" y="10.224" width="35.082" height="35.493"/>
			</defs>
			<clipPath id="SVGID_4_">
				<use xlink:href="#SVGID_3_"  overflow="visible"/>
			</clipPath>
			<path clip-path="url(#SVGID_4_)" fill="#4C88C7" d="M168.845,41.401c-1.168-0.356-2.352-1.623-2.627-2.813l-3.225-13.933
				c-0.275-1.19,0.232-2.846,1.127-3.679l10.486-9.756c0.895-0.832,2.584-1.222,3.754-0.865l13.715,4.184
				c1.17,0.356,2.352,1.623,2.627,2.813l3.225,13.933c0.275,1.19-0.23,2.846-1.127,3.679l-10.486,9.756
				c-0.895,0.832-2.584,1.222-3.752,0.865L168.845,41.401z"/>
		</g>
	</g>
	<g>
		<g>
			<defs>
				<rect id="SVGID_5_" y="34.083" width="23.417" height="28.897"/>
			</defs>
			<clipPath id="SVGID_6_">
				<use xlink:href="#SVGID_5_"  overflow="visible"/>
			</clipPath>
			<path clip-path="url(#SVGID_6_)" fill="#79C143" d="M21.089,61.421c-0.158,1.216-1.227,1.857-2.377,1.424l-16.888-6.35
				c-1.15-0.432-1.962-1.781-1.805-2.997l2.308-17.856c0.157-1.215,1.227-1.856,2.377-1.424l16.888,6.35
				c1.15,0.433,1.963,1.781,1.805,2.997L21.089,61.421z"/>
		</g>
	</g>
	<g>
		<g>
			<defs>
				<rect id="SVGID_7_" x="207.951" y="29.919" width="37.113" height="37.025"/>
			</defs>
			<clipPath id="SVGID_8_">
				<use xlink:href="#SVGID_7_"  overflow="visible"/>
			</clipPath>
			<path clip-path="url(#SVGID_8_)" fill="#A876B3" d="M232.494,65.864c-0.633,1.052-2.014,1.395-3.066,0.764l-20.395-12.226
				c-1.055-0.632-1.398-2.008-0.766-3.059l12.254-20.346c0.633-1.051,2.014-1.395,3.066-0.763l20.396,12.225
				c1.053,0.632,1.396,2.008,0.764,3.06L232.494,65.864z"/>
		</g>
	</g>
</g>
</svg>
