<?xml version="1.0" encoding="utf-8"?>
<!-- Generator: Adobe Illustrator 16.0.0, SVG Export Plug-In . SVG Version: 6.00 Build 0)  -->
<!DOCTYPE svg PUBLIC "-//W3C//DTD SVG 1.1//EN" "http://www.w3.org/Graphics/SVG/1.1/DTD/svg11.dtd">
<svg version="1.1" id="Layer_1" xmlns="http://www.w3.org/2000/svg" xmlns:xlink="http://www.w3.org/1999/xlink" x="0px" y="0px"
	 width="32px" height="32px" viewBox="0 0 32 32" enable-background="new 0 0 32 32" xml:space="preserve">
<g>
	<path fill="#00E6FF" d="M29.74,1C30.446,1,31,1.554,31,2.261L31.001,29.7c-0.029,0.717-0.596,1.3-1.263,1.3H2.261
		C1.554,31,1,30.446,1,29.739V2.261C1,1.554,1.554,1,2.261,1H29.74 M29.74,0H2.261C1.005,0,0,1.005,0,2.261v27.479
		C0,30.995,1.005,32,2.261,32h27.477c1.205,0,2.211-1.005,2.262-2.26V2.261C32,1.005,30.995,0,29.74,0L29.74,0z"/>
</g>
</svg>
