<?xml version="1.0" encoding="utf-8"?>
<!-- Generator: Adobe Illustrator 16.0.0, SVG Export Plug-In . SVG Version: 6.00 Build 0)  -->
<!DOCTYPE svg PUBLIC "-//W3C//DTD SVG 1.1//EN" "http://www.w3.org/Graphics/SVG/1.1/DTD/svg11.dtd">
<svg version="1.1" id="Layer_1" xmlns="http://www.w3.org/2000/svg" xmlns:xlink="http://www.w3.org/1999/xlink" x="0px" y="0px"
	 width="265.62px" height="72.771px" viewBox="39.93 127.482 265.62 72.771" enable-background="new 39.93 127.482 265.62 72.771"
	 xml:space="preserve">
<g id="layer1" transform="translate(0,-1014.3622)">
	<g id="g4208" transform="matrix(0,0.50903367,0.50903367,0,223.78362,1302.3164)">
		<path id="path4210" fill="#39FF5A" d="M-191.714-291.896c2.732-0.408,4.134-2.836,3.119-5.403l-14.916-37.704
			c-1.017-2.568-4.082-4.339-6.814-3.934l-40.109,5.934c-2.732,0.404-4.134,2.833-3.119,5.403l14.916,37.703
			c1.017,2.567,4.082,4.338,6.814,3.934L-191.714-291.896z"/>
	</g>
	<g id="g4176" transform="matrix(0,0.48312524,0.48312524,0,40.398911,1015.8434)">
		<path id="path4178" fill="#00FFBC" d="M357.931,132.109c0.716-2.67-0.879-4.269-3.543-3.553l-69.833,18.789
			c-2.664,0.718-3.25,2.903-1.302,4.857l51.083,51.187c1.949,1.955,4.13,1.37,4.845-1.304L357.931,132.109z"/>
	</g>
	<g id="g4184" transform="matrix(0,0.59756884,0.59756884,0,155.04312,1052.3437)">
		<path id="path4186" fill="#D06CFF" d="M244.181,171.318c-1.379-2.389-4.468-3.213-6.862-1.83l-46.363,26.769
			c-2.396,1.383-3.226,4.468-1.847,6.857l26.703,46.252c1.379,2.389,4.466,3.213,6.862,1.827l46.363-26.765
			c2.394-1.383,3.226-4.468,1.847-6.857L244.181,171.318z"/>
	</g>
	<path id="path4222" fill="#00E7FF" d="M191.691,1160.844c0-10.493-8.488-19-18.955-19c-10.468,0-18.953,8.507-18.953,19
		s8.485,19,18.953,19C183.202,1179.844,191.691,1171.337,191.691,1160.844z"/>
	<g id="g4228" transform="matrix(0,0.46572195,0.46572195,0,115.99114,1025.8412)">
		<path id="path4230" fill="#1892FF" d="M336.788,216.868c-0.715-2.671-3.485-5.443-6.148-6.161l-31.053-8.354
			c-2.667-0.721-6.444,0.294-8.394,2.248l-22.715,22.764c-1.95,1.95-2.961,5.737-2.244,8.408l8.337,31.118
			c0.717,2.671,3.481,5.444,6.148,6.161l31.055,8.358c2.667,0.717,6.442-0.294,8.392-2.248l22.718-22.764
			c1.946-1.954,2.959-5.741,2.242-8.413L336.788,216.868z"/>
	</g>
</g>
</svg>
