<?xml version="1.0" encoding="UTF-8" standalone="no"?>
<svg
   xmlns:dc="http://purl.org/dc/elements/1.1/"
   xmlns:cc="http://creativecommons.org/ns#"
   xmlns:rdf="http://www.w3.org/1999/02/22-rdf-syntax-ns#"
   xmlns:svg="http://www.w3.org/2000/svg"
   xmlns="http://www.w3.org/2000/svg"
   xml:space="preserve"
   enable-background="new -384 262 190 38"
   viewBox="-384 262 190 38"
   y="0px"
   x="0px"
height="38"
   width="190"
   id="svg4481"
   version="1.1"><metadata
     id="metadata27"><rdf:RDF><cc:Work
         rdf:about=""><dc:format>image/svg+xml</dc:format><dc:type
           rdf:resource="http://purl.org/dc/dcmitype/StillImage" /><dc:title></dc:title></cc:Work></rdf:RDF></metadata><defs
     id="defs25" /><g
     style=""
     transform="translate(0,-1014.3622)"
     id="layer1"><g
       transform="matrix(0,0.50903367,0.50903367,0,223.78362,1302.3164)"
       id="g4208"><g
         id="path4210"><path
           id="path6"
           d="M-47-1156.7C-47-1156.7-47-1156.6-47-1156.7l31.8,25.2c0.7,0.6,2.2,0.6,3,0l31.8-25.2c0,0,0,0,0,0     c0,0,0,0,0,0l-31.8-25.2c-0.7-0.6-2.2-0.6-3,0L-47-1156.7C-47-1156.7-47-1156.7-47-1156.7 M-51-1156.7c0-1.1,0.5-2.3,1.6-3.1     l31.8-25.2c2.2-1.7,5.7-1.7,7.9,0l31.8,25.2c1.1,0.9,1.6,2,1.6,3.1s-0.5,2.3-1.6,3.1l-31.8,25.2c-2.2,1.7-5.7,1.7-7.9,0     l-31.8-25.2C-50.5-1154.4-51-1155.5-51-1156.7L-51-1156.7z"
           fill="#39FF5A" /></g></g><g
       transform="matrix(0,0.48312524,0.48312524,0,40.398911,1015.8434)"
       id="g4176"><g
         id="path4178"><path
           id="path10"
           d="M549.9-760.5l58.9,34.1v-68.1L549.9-760.5 M544.2-760.5c0-0.9,0.6-1.8,1.8-2.5l62.6-36.2     c2.4-1.4,4.3-0.3,4.3,2.5v72.4c0,2.8-2,3.9-4.3,2.5L546-757.9C544.8-758.6,544.2-759.6,544.2-760.5L544.2-760.5z"
           fill="#00FFBC" /></g></g><g
       transform="matrix(0,0.59756884,0.59756884,0,155.04312,1052.3437)"
       id="g4184"><g
         id="path4186"><path
           id="path14"
           d="M378.3-589.1c0,0.9,0.8,1.7,1.7,1.7h53.4c0.9,0,1.7-0.8,1.7-1.7v-53.5c0-0.9-0.8-1.7-1.7-1.7h-53.4     c-0.9,0-1.7,0.8-1.7,1.7V-589.1 M374.9-589.1v-53.5c0-2.8,2.3-5,5-5h53.4c2.8,0,5,2.3,5,5v53.5c0,2.8-2.3,5-5,5h-53.4     C377.2-584.1,374.9-586.4,374.9-589.1L374.9-589.1z"
           fill="#D06CFF" /></g></g><g
       id="path4222"><path
         id="path17"
         d="M-289,1278.4c4.5,0,8.8,1.8,12,5c3.2,3.2,5,7.5,5,12c0,9.3-7.6,17-17,17s-17-7.6-17-17    C-306,1286-298.4,1278.4-289,1278.4 M-289,1276.4c-10.5,0-19,8.5-19,19c0,10.5,8.5,19,19,19c10.5,0,19-8.5,19-19    C-270,1284.9-278.5,1276.4-289,1276.4L-289,1276.4z"
         fill="#00E7FF" /></g><g
       transform="matrix(0,0.46572195,0.46572195,0,115.99114,1025.8412)"
       id="g4228"><g
         id="path4230"><path
           id="path21"
           d="M546.4-771.9c0,1.2,1.1,3.2,2.2,3.8l27.8,16.1c1.1,0.6,3.3,0.6,4.4,0l27.8-16.1c1.1-0.6,2.2-2.6,2.2-3.8     v-32.2c0-1.2-1.1-3.2-2.2-3.8L580.9-824c-1.1-0.6-3.3-0.6-4.4,0l-27.8,16.1c-1.1,0.6-2.2,2.6-2.2,3.8V-771.9 M542.2-771.9v-32.2     c0-2.8,2-6.2,4.3-7.5l27.8-16.1c2.4-1.4,6.3-1.4,8.7,0l27.8,16.1c2.4,1.4,4.3,4.8,4.3,7.5v32.2c0,2.8-2,6.2-4.3,7.5L583-748.2     c-2.4,1.4-6.3,1.4-8.7,0l-27.8-16.1C544.1-765.7,542.2-769.1,542.2-771.9L542.2-771.9z"
           fill="#1892FF" /></g></g></g></svg>
